<svg height="670" width="720" xmlns="http://www.w3.org/2000/svg">
<rect height="670" fill="#555" width="720"></rect>
<text fill="#7f7" font-family="Courier New" font-size="12" xml:space="preserve">
<tspan x="10" y="26">12 megabytes installed</tspan>
<tspan x="10" y="42"></tspan>
<tspan x="10" y="58">node_modules</tspan>
<tspan x="10" y="74">└─┬ d3-tip@0.7.1 </tspan>
<tspan x="10" y="90">  └─┬ d3@4.8.0 </tspan>
<tspan x="10" y="106">    ├── d3-array@1.2.0 </tspan>
<tspan x="10" y="122">    ├── d3-axis@1.0.6 </tspan>
<tspan x="10" y="138">    ├── d3-brush@1.0.4 </tspan>
<tspan x="10" y="154">    ├── d3-chord@1.0.4 </tspan>
<tspan x="10" y="170">    ├── d3-collection@1.0.3 </tspan>
<tspan x="10" y="186">    ├── d3-color@1.0.3 </tspan>
<tspan x="10" y="202">    ├── d3-dispatch@1.0.3 </tspan>
<tspan x="10" y="218">    ├── d3-drag@1.0.4 </tspan>
<tspan x="10" y="234">    ├─┬ d3-dsv@1.0.5 </tspan>
<tspan x="10" y="250">    │ ├─┬ commander@2.9.0 </tspan>
<tspan x="10" y="266">    │ │ └── graceful-readlink@1.0.1 </tspan>
<tspan x="10" y="282">    │ ├── iconv-lite@0.4.15 </tspan>
<tspan x="10" y="298">    │ └── rw@1.3.3 </tspan>
<tspan x="10" y="314">    ├── d3-ease@1.0.3 </tspan>
<tspan x="10" y="330">    ├── d3-force@1.0.6 </tspan>
<tspan x="10" y="346">    ├── d3-format@1.2.0 </tspan>
<tspan x="10" y="362">    ├── d3-geo@1.6.3 </tspan>
<tspan x="10" y="378">    ├── d3-hierarchy@1.1.4 </tspan>
<tspan x="10" y="394">    ├── d3-interpolate@1.1.4 </tspan>
<tspan x="10" y="410">    ├── d3-path@1.0.5 </tspan>
<tspan x="10" y="426">    ├── d3-polygon@1.0.3 </tspan>
<tspan x="10" y="442">    ├── d3-quadtree@1.0.3 </tspan>
<tspan x="10" y="458">    ├── d3-queue@3.0.5 </tspan>
<tspan x="10" y="474">    ├── d3-random@1.0.3 </tspan>
<tspan x="10" y="490">    ├─┬ d3-request@1.0.5 </tspan>
<tspan x="10" y="506">    │ └── xmlhttprequest@1.8.0 </tspan>
<tspan x="10" y="522">    ├── d3-scale@1.0.5 </tspan>
<tspan x="10" y="538">    ├── d3-selection@1.0.5 </tspan>
<tspan x="10" y="554">    ├── d3-shape@1.0.6 </tspan>
<tspan x="10" y="570">    ├── d3-time@1.0.6 </tspan>
<tspan x="10" y="586">    ├── d3-time-format@2.0.5 </tspan>
<tspan x="10" y="602">    ├── d3-timer@1.0.5 </tspan>
<tspan x="10" y="618">    ├── d3-transition@1.0.4 </tspan>
<tspan x="10" y="634">    ├── d3-voronoi@1.1.2 </tspan>
<tspan x="10" y="650">    └── d3-zoom@1.1.4</tspan>
</text>
</svg>
